<?xml version="1.0" encoding="UTF-8"?>
<svg version="1.1" xmlns="http://www.w3.org/2000/svg" width="400" height="400">
<path d="M0 0 C1.23391228 -0.01058945 1.23391228 -0.01058945 2.49275208 -0.02139282 C36.44592663 -0.24667095 36.44592663 -0.24667095 51.171875 3.203125 C52.06503418 3.40180176 52.95819336 3.60047852 53.87841797 3.80517578 C80.05158526 9.7223948 105.43787555 20.28134731 127.171875 36.203125 C128.73228516 37.33814453 128.73228516 37.33814453 130.32421875 38.49609375 C137.93010108 44.13609215 144.93699192 50.32606186 151.77490234 56.86914062 C152.96618746 58.00671173 154.17117264 59.12990724 155.37890625 60.25 C187.35060068 90.72403868 210.20998236 140.36129218 211.33300781 184.46582031 C211.35254956 185.98756911 211.36630412 187.50940058 211.375 189.03125 C211.38205963 189.85385818 211.38911926 190.67646637 211.39639282 191.52400208 C211.62167095 225.47717663 211.62167095 225.47717663 208.171875 240.203125 C207.87385986 241.54286377 207.87385986 241.54286377 207.56982422 242.90966797 C201.6526052 269.08283526 191.09365269 294.46912555 175.171875 316.203125 C174.41519531 317.24339844 173.65851563 318.28367187 172.87890625 319.35546875 C167.23890785 326.96135108 161.04893814 333.96824192 154.50585938 340.80615234 C153.36828827 341.99743746 152.24509276 343.20242264 151.125 344.41015625 C120.65096132 376.38185068 71.01370782 399.24123236 26.90917969 400.36425781 C25.38743089 400.38379956 23.86559942 400.39755412 22.34375 400.40625 C21.10983772 400.41683945 21.10983772 400.41683945 19.85099792 400.42764282 C-14.10217663 400.65292095 -14.10217663 400.65292095 -28.828125 397.203125 C-30.16786377 396.90510986 -30.16786377 396.90510986 -31.53466797 396.60107422 C-57.70783526 390.6838552 -83.09412555 380.12490269 -104.828125 364.203125 C-105.86839844 363.44644531 -106.90867187 362.68976563 -107.98046875 361.91015625 C-115.58635108 356.27015785 -122.59324192 350.08018814 -129.43115234 343.53710938 C-130.62243746 342.39953827 -131.82742264 341.27634276 -133.03515625 340.15625 C-165.00685068 309.68221132 -187.86623236 260.04495782 -188.98925781 215.94042969 C-189.00879956 214.41868089 -189.02255412 212.89684942 -189.03125 211.375 C-189.03830963 210.55239182 -189.04536926 209.72978363 -189.05264282 208.88224792 C-189.27792095 174.92907337 -189.27792095 174.92907337 -185.828125 160.203125 C-185.62944824 159.30996582 -185.43077148 158.41680664 -185.22607422 157.49658203 C-179.3088552 131.32341474 -168.74990269 105.93712445 -152.828125 84.203125 C-152.07144531 83.16285156 -151.31476563 82.12257813 -150.53515625 81.05078125 C-144.89515785 73.44489892 -138.70518814 66.43800808 -132.16210938 59.60009766 C-131.02453827 58.40881254 -129.90134276 57.20382736 -128.78125 55.99609375 C-97.01652998 22.67028706 -45.85508406 0.26201706 0 0 Z " fill="#FE914D" transform="translate(188.828125,-0.203125)"/>
<path d="M0 0 C11.88 0 23.76 0 36 0 C34.67433726 6.62831372 33.27851296 12.76573378 31.1875 19.125 C30.64947622 20.79418597 30.11171984 22.46345815 29.57421875 24.1328125 C29.30786621 24.95426758 29.04151367 25.77572266 28.76708984 26.62207031 C27.65359621 30.07382969 26.57573496 33.53632646 25.5 37 C23.66102355 42.9006704 21.80221212 48.79491643 19.9375 54.6875 C17.92568237 61.04737827 15.93815109 67.41376495 13.98828125 73.79296875 C13.08937088 76.7099862 12.17025867 79.62007349 11.24804688 82.52978516 C9.01530481 89.5902195 6.94151985 96.68373504 4.9375 103.8125 C3.15391959 110.14409771 1.26031359 116.35503557 -1.078125 122.5078125 C-3.90012904 130.13678951 -6.01143439 138.0199255 -8.21582031 145.84423828 C-10.28030391 153.16505652 -12.37380491 160.39234735 -15.078125 167.5078125 C-17.90012904 175.13678951 -20.01143439 183.0199255 -22.21582031 190.84423828 C-24.27608387 198.15009194 -26.35585835 205.36793203 -29.06640625 212.46484375 C-31.30120596 218.53340028 -33.04463277 224.77880608 -34.8828125 230.9765625 C-35.14835937 231.87117187 -35.41390625 232.76578125 -35.6875 233.6875 C-35.91824219 234.47511719 -36.14898437 235.26273438 -36.38671875 236.07421875 C-37 238 -37 238 -38 240 C-49.88 240 -61.76 240 -74 240 C-70.62512678 226.50050713 -70.62512678 226.50050713 -68.96630859 221.22290039 C-68.40959976 219.44267235 -68.40959976 219.44267235 -67.84164429 217.6264801 C-67.44788605 216.37946823 -67.05412781 215.13245636 -66.6484375 213.84765625 C-66.22556644 212.49948317 -65.80301774 211.15120894 -65.38076782 209.80284119 C-64.27265276 206.26708193 -63.16050925 202.73260343 -62.04736328 199.19842529 C-60.94734136 195.70393845 -59.85064297 192.20840965 -58.75390625 188.71289062 C-58.31949996 187.32847905 -57.88508732 185.94406946 -57.45066833 184.55966187 C-57.23595823 183.87540508 -57.02124813 183.1911483 -56.80003166 182.48615646 C-56.14618913 180.40299288 -55.49190962 178.31996696 -54.83753967 176.23696899 C-50.89053539 163.6698666 -46.98374141 151.09046135 -43.08666992 138.50778198 C-41.2850304 132.69207057 -39.48025675 126.87733197 -37.67578125 121.0625 C-36.95694294 118.745689 -36.23811159 116.42887584 -35.51928711 114.11206055 C-28.59646464 91.80071416 -21.66796217 69.4911542 -14.72509766 47.18603516 C-12.20429092 39.08721214 -9.6845616 30.98806535 -7.171875 22.88671875 C-6.95584122 22.19021713 -6.73980743 21.49371552 -6.51722717 20.77610779 C-5.53560698 17.61091394 -4.55448518 14.44556714 -3.57397461 11.2800293 C-3.24405518 10.2156665 -2.91413574 9.15130371 -2.57421875 8.0546875 C-2.29151123 7.14187012 -2.00880371 6.22905273 -1.7175293 5.28857422 C-1.16302455 3.51997011 -0.58612593 1.75837778 0 0 Z " fill="#FEFDFD" transform="translate(216,79)"/>
<path d="M0 0 C0 11.55 0 23.1 0 35 C-6.0328125 37.1965625 -6.0328125 37.1965625 -12.1875 39.4375 C-22.12005056 43.06203378 -32.02413979 46.75560473 -41.90625 50.515625 C-42.92100906 50.90126114 -43.93576813 51.28689728 -44.98127747 51.68421936 C-50.07421369 53.62026107 -55.16490105 55.56193521 -60.25268555 57.51147461 C-62.14103927 58.23050038 -64.02946376 58.94934036 -65.91796875 59.66796875 C-67.22858276 60.17345245 -67.22858276 60.17345245 -68.56567383 60.68914795 C-69.37053223 60.99435364 -70.17539063 61.29955933 -71.00463867 61.61401367 C-71.70691086 61.88283859 -72.40918304 62.15166351 -73.13273621 62.42863464 C-75 63 -75 63 -78 63 C-78 64.32 -78 65.64 -78 67 C-77.40900513 67.16779968 -76.81801025 67.33559937 -76.20910645 67.50848389 C-69.58403393 69.43677304 -63.1587501 71.73222538 -56.71875 74.203125 C-55.13930603 74.80444244 -55.13930603 74.80444244 -53.5279541 75.41790771 C-50.18403783 76.69198371 -46.84202461 77.97097147 -43.5 79.25 C-41.28918045 80.09275741 -39.07824383 80.93520775 -36.8671875 81.77734375 C-24.55894628 86.46953439 -12.27079465 91.2107658 0 96 C0 107.55 0 119.1 0 131 C-11.25007499 127.6249775 -11.25007499 127.6249775 -15.21757507 126.02697754 C-16.12152008 125.6653804 -17.02546509 125.30378326 -17.95680237 124.93122864 C-18.91038132 124.54464584 -19.86396027 124.15806305 -20.84643555 123.75976562 C-21.88028381 123.34474289 -22.91413208 122.92972015 -23.97930908 122.50212097 C-27.36681775 121.14102725 -30.75178078 119.77372287 -34.13671875 118.40625 C-36.50447816 117.453293 -38.87238521 116.50070273 -41.24043274 115.54846191 C-46.18975491 113.55723641 -51.13798896 111.56334433 -56.08520508 109.56689453 C-63.04496216 106.75829206 -70.00711227 103.95566076 -76.96971834 101.15412998 C-82.40086853 98.96853716 -87.83131776 96.78120348 -93.26171875 94.59375 C-94.41271246 94.13015579 -95.56370617 93.66656158 -96.74957848 93.18891907 C-100.01400188 91.87359843 -103.27795939 90.55712913 -106.54174805 89.24023438 C-107.50139969 88.85365158 -108.46105133 88.46706879 -109.44978333 88.06877136 C-110.34526886 87.70717422 -111.24075439 87.34557709 -112.16337585 86.97302246 C-112.93298991 86.66258751 -113.70260397 86.35215256 -114.49553967 86.03231049 C-117.67732904 84.72081256 -120.83677731 83.35566687 -124 82 C-124 71.11 -124 60.22 -124 49 C-117.46384566 46.02902076 -111.00378021 43.1133356 -104.34521484 40.4699707 C-103.55471237 40.1536821 -102.7642099 39.83739349 -101.94975281 39.51152039 C-99.37112234 38.48048133 -96.79104939 37.45310683 -94.2109375 36.42578125 C-92.38073731 35.69482452 -90.55063053 34.96363385 -88.72061157 34.23222351 C-83.91436634 32.31200397 -79.10689086 30.39488393 -74.2991333 28.47845459 C-68.54418681 26.18375541 -62.7907721 23.88521884 -57.03711319 21.58729362 C-52.41174963 19.74020349 -47.78595843 17.89420131 -43.15911865 16.05081177 C-35.3725393 12.94799208 -27.58825922 9.84059628 -19.82128906 6.68896484 C-18.05176376 5.97307442 -18.05176376 5.97307442 -16.24649048 5.24272156 C-14.14377314 4.39084326 -12.04269492 3.53490178 -9.94369507 2.67390442 C-9.05042511 2.31253891 -8.15715515 1.9511734 -7.23681641 1.57885742 C-6.48123444 1.27010178 -5.72565247 0.96134613 -4.94717407 0.64323425 C-3 0 -3 0 0 0 Z " fill="#FEFDFC" transform="translate(126,128)"/>
<path d="M0 0 C11.25024555 3.37507367 11.25024555 3.37507367 15.2243042 4.97302246 C16.12969437 5.3346196 17.03508453 5.69621674 17.96791077 6.06877136 C19.40063576 6.64864555 19.40063576 6.64864555 20.86230469 7.24023438 C21.89775925 7.65525711 22.93321381 8.07027985 24.00004578 8.49787903 C27.39239509 9.85888389 30.78217595 11.22615925 34.171875 12.59375 C36.54205054 13.54665638 38.91235286 14.49924748 41.28277588 15.45153809 C46.23633611 17.44265811 51.1887308 19.43663698 56.14013672 21.43310547 C61.85187704 23.73611534 67.56556269 26.03424153 73.28035998 28.32965422 C78.80009968 30.54679499 84.31865638 32.7668669 89.83664703 34.98835754 C92.17593808 35.9299185 94.51549002 36.87083153 96.85530853 37.81108093 C100.12298564 39.12478901 103.38930923 40.44180596 106.65527344 41.75976562 C107.61852036 42.14634842 108.58176727 42.53293121 109.57420349 42.93122864 C110.46831436 43.29282578 111.36242523 43.65442291 112.28363037 44.02697754 C113.05416622 44.33741249 113.82470207 44.64784744 114.61858749 44.96768951 C117.46314027 46.20076512 120.22699355 47.61349678 123 49 C123 59.89 123 70.78 123 82 C103.20890364 90.23284792 83.36377696 98.30277115 63.45098877 106.2354126 C57.92495215 108.43702146 52.3998523 110.64097766 46.87528229 112.84626389 C45.52331909 113.38582567 44.17126423 113.92515785 42.81911469 114.46425247 C35.54539544 117.36461014 28.2806088 120.28458704 21.03613281 123.25732422 C20.40247362 123.51705112 19.76881443 123.77677801 19.11595345 124.04437542 C16.11791571 125.27378287 13.1217044 126.50735031 10.12802124 127.74732971 C9.08368927 128.17674362 8.0393573 128.60615753 6.96337891 129.04858398 C6.04875885 129.42707993 5.13413879 129.80557587 4.19180298 130.19554138 C2 131 2 131 0 131 C0 119.45 0 107.9 0 96 C13.5052476 90.3728135 13.5052476 90.3728135 19.20556641 88.22924805 C19.82833466 87.99443222 20.45110291 87.75961639 21.09274292 87.51768494 C23.094862 86.76349211 25.09813276 86.01242228 27.1015625 85.26171875 C28.51455168 84.73087347 29.9275047 84.1999319 31.34042358 83.66889954 C34.27278237 82.56741705 37.20575718 81.46759494 40.13916016 80.36889648 C43.9021352 78.95924441 47.6631949 77.54455529 51.42379189 76.12857342 C54.32761766 75.03596748 57.23256809 73.946378 60.13785934 72.85767555 C61.52655902 72.33678478 62.91487014 71.81485692 64.30278397 71.29187584 C66.23015803 70.5660418 68.15904026 69.84437199 70.08837891 69.1237793 C71.18469635 68.7125029 72.28101379 68.3012265 73.41055298 67.87748718 C76 67 76 67 78 67 C77.67 66.01 77.34 65.02 77 64 C74.78119101 62.92023773 72.66800229 62.0458306 70.35644531 61.21264648 C69.66207367 60.95207458 68.96770203 60.69150269 68.25228882 60.42303467 C65.94814341 59.56145248 63.63831213 58.71632792 61.328125 57.87109375 C59.72689484 57.27584656 58.12604894 56.67956476 56.52557373 56.08229065 C52.30285999 54.50951978 48.0751872 52.95052793 43.84631348 51.39440918 C39.55606128 49.81317419 35.27034695 48.21974536 30.984375 46.62695312 C26.1638268 44.8360907 21.3428329 43.04651849 16.51837158 41.26622009 C15.78186371 40.99431351 15.04535583 40.72240692 14.28652954 40.44226074 C12.91797169 39.93724334 11.54921287 39.43277007 10.1802063 38.92897034 C6.76354055 37.66796483 3.38271595 36.35308638 0 35 C0 23.45 0 11.9 0 0 Z " fill="#FEFEFD" transform="translate(274,128)"/>
</svg>
